<?xml version="1.0" standalone="no"?>
<!DOCTYPE svg PUBLIC "-//W3C//DTD SVG 20010904//EN"
 "http://www.w3.org/TR/2001/REC-SVG-20010904/DTD/svg10.dtd">
<svg version="1.0" xmlns="http://www.w3.org/2000/svg"
 width="1024.000000pt" height="1024.000000pt" viewBox="0 0 1024.000000 1024.000000"
 preserveAspectRatio="xMidYMid meet">

<g transform="translate(0.000000,1024.000000) scale(0.100000,-0.100000)"
fill="#000000" stroke="none">
<path d="M7635 8635 c-22 -7 -247 -80 -500 -163 -427 -140 -1294 -422 -2180
-710 -358 -117 -1390 -450 -1665 -537 -219 -70 -980 -318 -1322 -431 -174 -58
-327 -113 -338 -122 -15 -12 -24 -33 -27 -62 -4 -38 15 -103 121 -421 l126
-376 0 -1585 c0 -1383 2 -1591 15 -1635 35 -117 153 -240 267 -279 51 -17 188
-18 2978 -19 2829 0 2927 1 2980 19 116 39 220 130 269 236 20 45 26 77 32
175 6 116 7 2834 1 3025 l-3 95 -3140 -2 c-1726 -1 -3139 1 -3139 5 0 8 261
93 1100 362 459 147 773 249 2215 718 253 83 582 189 730 237 149 48 504 162
790 255 286 93 654 212 818 265 174 56 297 101 297 108 -1 39 -257 786 -279
811 -17 20 -72 47 -93 45 -7 -1 -31 -7 -53 -14z m-321 -539 c166 -90 339 -184
384 -209 l84 -45 -295 -96 c-162 -53 -303 -96 -312 -96 -13 0 -513 271 -744
403 l-44 25 84 26 c46 14 181 57 299 95 118 39 221 68 229 65 8 -2 150 -78
315 -168z m-1264 -499 c168 -91 317 -171 333 -178 28 -13 36 -29 14 -29 -8 0
-144 -42 -302 -94 -280 -92 -290 -94 -319 -79 -91 45 -746 408 -746 413 0 3
134 49 298 101 l297 96 60 -32 c33 -18 197 -107 365 -198z m-1387 -429 l389
-211 -104 -32 c-56 -18 -196 -63 -309 -100 l-206 -68 -391 214 c-216 118 -392
216 -392 219 0 8 572 189 600 189 14 1 191 -90 413 -211z m-1489 -382 c441
-240 495 -270 491 -274 -2 -2 -138 -48 -302 -102 l-298 -98 -388 216 c-213
118 -384 219 -380 222 5 4 33 14 63 24 30 9 156 50 280 91 124 41 231 74 238
74 7 1 140 -68 296 -153z m414 -1106 c-1 -5 -173 -182 -380 -393 l-376 -384
-297 -2 c-190 -1 -296 2 -293 8 1 5 171 183 376 395 l373 386 301 0 c186 0
298 -4 296 -10z m917 -380 c27 -63 50 -116 51 -118 1 -1 75 -12 165 -22 90
-11 176 -23 191 -26 26 -5 20 -12 -107 -126 -74 -67 -135 -127 -135 -134 0 -6
16 -92 35 -190 19 -98 33 -179 32 -180 -1 -1 -72 43 -157 97 -85 54 -159 98
-164 99 -4 0 -82 -45 -172 -100 -136 -82 -163 -95 -159 -77 8 35 75 357 75
361 0 5 -214 194 -253 223 l-29 21 44 6 c322 42 338 45 338 57 0 5 32 79 70
164 39 85 70 160 70 167 1 15 35 -58 105 -222z m1321 209 c137 -25 286 -130
359 -253 108 -184 74 -444 -81 -604 -30 -31 -54 -58 -54 -60 0 -2 54 -2 120 0
l120 3 0 -41 0 -41 -302 -7 c-331 -7 -360 -4 -476 51 -69 32 -176 136 -214
209 -107 201 -66 450 100 606 99 91 208 138 348 147 11 0 47 -4 80 -10z
m-3082 -1324 c22 -9 52 -15 68 -13 l28 5 0 -116 0 -116 -31 55 c-16 30 -42 67
-56 82 -37 39 -103 62 -150 53 -54 -10 -124 -83 -152 -160 -106 -282 -84 -824
39 -994 42 -57 84 -81 143 -81 87 0 141 42 202 156 l26 49 -5 -49 c-3 -27 -6
-81 -6 -120 0 -61 -3 -72 -17 -73 -10 0 -52 -13 -93 -28 -65 -24 -86 -27 -160
-23 -73 3 -94 9 -148 38 -111 59 -180 162 -223 331 -30 121 -38 399 -15 539
30 179 74 281 163 380 43 48 94 82 153 101 40 13 190 3 234 -16z m2408 3 l78
-23 0 -104 0 -104 -32 64 c-53 104 -133 137 -209 86 -47 -31 -69 -79 -69 -153
0 -89 32 -140 177 -288 168 -171 221 -259 238 -398 20 -164 -85 -357 -224
-408 -69 -26 -195 -28 -276 -4 -31 9 -67 13 -80 10 l-24 -6 -3 125 c-2 69 -1
125 2 125 3 0 14 -19 24 -42 41 -88 105 -138 179 -140 164 -3 248 231 148 417
-14 27 -77 104 -140 170 -173 181 -211 252 -211 389 0 131 79 249 194 293 50
19 143 15 228 -9z m713 -17 c54 -24 131 -109 160 -176 96 -216 111 -612 33
-855 -63 -196 -160 -290 -300 -290 -111 0 -182 53 -247 185 -90 186 -115 580
-51 829 38 150 116 267 204 307 54 24 148 25 201 0z m-2605 -16 c0 -3 -9 -16
-20 -27 -11 -12 -25 -39 -31 -60 -6 -25 -9 -231 -7 -576 l3 -537 23 -36 c12
-20 22 -38 22 -40 0 -2 -68 -5 -150 -6 -89 -1 -150 2 -150 8 0 5 4 9 9 9 5 0
19 15 30 34 21 33 21 44 21 593 l0 560 -25 37 c-14 20 -25 39 -25 41 0 3 68 5
150 5 83 0 150 -2 150 -5z m466 -288 c68 -159 124 -298 124 -310 0 -11 3 -18
6 -15 3 3 5 127 4 274 -1 248 -2 271 -20 302 -11 18 -20 35 -20 38 0 2 41 4
90 4 50 0 90 -2 90 -5 0 -3 -10 -20 -22 -36 l-23 -31 -3 -614 c-2 -495 -5
-614 -15 -614 -8 0 -51 88 -100 204 -139 326 -293 698 -308 741 -7 22 -16 43
-19 47 -3 4 -4 -196 -2 -445 3 -447 3 -452 25 -492 l23 -40 -98 0 c-54 0 -98
1 -98 2 0 1 10 19 23 40 22 38 22 40 25 553 2 283 0 538 -3 567 -4 30 -17 67
-31 88 l-24 36 127 -3 126 -3 123 -288z m868 251 c3 -24 7 -66 9 -95 l4 -52
-42 47 -43 47 -86 4 -86 3 0 -226 0 -226 54 0 c63 0 101 12 134 42 l22 21 0
-109 c-1 -79 -3 -104 -11 -91 -18 30 -65 47 -134 47 l-65 0 0 -280 0 -280 74
0 c106 0 150 21 198 95 l20 30 -5 -30 c-3 -16 -11 -66 -17 -111 l-12 -81 -254
1 c-140 1 -254 2 -254 3 0 1 11 19 25 39 l25 37 0 566 c0 548 -1 567 -20 599
-11 18 -20 35 -20 37 0 3 108 5 239 5 l240 0 5 -42z m2047 17 c102 -36 171
-129 190 -257 26 -176 -43 -344 -167 -403 l-39 -18 29 -8 c67 -18 99 -80 135
-259 29 -150 47 -201 86 -261 20 -28 34 -52 33 -53 -2 -1 -55 0 -119 2 l-117
3 -15 57 c-9 31 -32 134 -52 227 -20 94 -44 186 -53 205 -15 30 -22 35 -57 38
l-40 3 5 -238 c5 -224 6 -240 27 -268 l21 -31 -144 1 c-79 0 -144 1 -144 2 0
1 11 23 25 50 l26 47 -3 556 -3 555 -23 39 -23 39 188 -6 c137 -4 200 -10 234
-22z m854 -62 c3 -49 8 -99 10 -113 4 -23 4 -24 -8 -6 -49 77 -106 116 -167
116 l-30 0 2 -564 3 -564 23 -31 c12 -16 22 -31 22 -33 0 -2 -65 -3 -145 -3
-80 0 -145 2 -145 3 0 2 10 18 23 35 l22 32 3 563 2 562 -50 0 c-28 0 -64 -7
-80 -15 -30 -16 -80 -74 -80 -93 0 -7 -3 -12 -8 -12 -4 0 -4 35 0 78 3 42 7
89 7 105 l1 27 294 0 294 0 7 -87z m590 30 c3 -32 7 -75 9 -95 5 -46 -3 -47
-29 -5 -30 47 -77 67 -162 67 l-73 0 0 -225 0 -225 58 0 c63 0 133 27 151 57
8 13 10 -10 11 -96 l0 -114 -22 20 c-39 35 -64 43 -132 43 l-66 0 0 -280 0
-280 88 0 c77 0 92 3 125 26 21 14 47 40 58 57 l20 32 -5 -30 c-3 -16 -10 -64
-17 -106 l-11 -76 -157 -2 c-86 -1 -200 2 -254 5 l-98 6 20 22 c11 11 24 34
30 49 7 19 11 212 11 576 l0 548 -25 37 c-14 20 -25 39 -25 41 0 3 110 5 244
5 l245 0 6 -57z"/>
<path d="M5684 5420 c-27 -11 -72 -65 -80 -96 -17 -67 29 -143 99 -162 152
-42 237 181 97 253 -32 16 -83 19 -116 5z"/>
<path d="M5410 5208 c-44 -30 -60 -61 -60 -118 0 -59 26 -101 78 -124 78 -35
172 13 187 97 10 51 0 82 -38 124 -28 29 -42 36 -83 40 -40 4 -55 0 -84 -19z"/>
<path d="M5919 5192 c-33 -31 -42 -46 -46 -83 -9 -75 39 -141 112 -155 46 -8
119 25 139 65 24 45 20 111 -7 152 -28 42 -60 59 -115 59 -36 0 -49 -6 -83
-38z"/>
<path d="M5679 5081 c-39 -39 -40 -88 -2 -125 14 -14 37 -29 50 -32 30 -8 79
12 98 40 41 58 -7 146 -80 146 -27 0 -44 -8 -66 -29z"/>
<path d="M5522 4893 c-71 -34 -97 -106 -66 -175 22 -50 66 -78 119 -78 52 0
84 17 112 59 77 114 -42 255 -165 194z"/>
<path d="M5841 4893 c-51 -25 -73 -67 -68 -131 3 -43 10 -59 34 -84 61 -61
168 -45 211 31 41 72 19 151 -51 184 -44 21 -83 21 -126 0z"/>
<path d="M5719 4090 c-27 -16 -59 -104 -76 -212 -11 -74 -16 -174 -16 -353 0
-351 23 -506 84 -571 28 -30 69 -31 97 -1 58 62 82 199 89 507 10 430 -33 641
-130 640 -18 0 -39 -5 -48 -10z"/>
<path d="M6458 3795 l-3 -285 37 0 c52 0 101 45 129 118 29 74 32 238 6 322
-22 75 -82 130 -141 130 l-25 0 -3 -285z"/>
</g>
</svg>
